<?xml version="1.0" encoding="UTF-8"?>
<svg id="Layer_1" data-name="Layer 1" xmlns="http://www.w3.org/2000/svg" viewBox="0 0 179.33 208.28">
  <defs>
    <style>
      .cls-1 {
        fill: #fff;
      }
    </style>
  </defs>
  <path class="cls-1" d="M179.33,126.88c-.5-4.6-1.6-9-3-13.3-.7-2.4-1.4-5-2.6-7.3-2.3-4.7-6.2-7.8-9.5-12-2.4-3.1-4.4-6.5-6.5-10,0-.2-.2-.4-.4-.6-1.8-3.7-4.3-7.6-7.4-10.7l-.5-.5c-.5-.4-.8-.7-1.2-1,0,.5-.5,1.1-.8,1.4-.5.5-1.3,1.1-2.6,1.1-2.5,0-4.8-1-7.1-1.8-4.8-1.8-7.4-2.5-10,1.4-.8,1.4-1.4,2.8-2.2,4.1-2.3,4.8-4.4,9.4-13.7,7-3.1-.8-5.8-2.5-8.3-4.2-.6-.5-1.3-.8-1.9-1.3-2.3-1.4-8.4-2.2-11.2-1.7-1.6.2-3.1,1.3-4.8,2.4-1.8,1.3-3.7,2.5-6.1,3-1.9.4-4,.4-5.9.4s-3.7,0-5.4.4c-7.2,1.7-10.3,7.2-13.6,13-2.9,5.2-6,10.6-12,13.6-1.7.8-3.1,1.2-4.3,1.2s-2.2-.4-2.9-1.1c-.7-.6-1.1-1.4-1.4-2.3-4.2,13-4,20,1.8,34.4,11.6,29,36.5,49.8,40.9,51.8,4.8,2.2,28-6,33.1-5.5,4.3.5,7.2,5.2,8.9,8.6,1.7,3.4,3,10.6,4.7,10.9,1.1,0,2.3-.2,3.5-.6.5,0,1.1-.4,1.6-.4,1.7-.5,2.9-.8,3.5-1.1-.4-1-.8-2.3-1.2-3.2-1.3-3.5-2.3-6.7-2.4-10.6,3.6-1.6,4.9,7.1,5.8,9.2.5,1.3,1,2.8,1.3,3.7,1.4-.4,3.7-1.2,6-1.9s4.6-1.6,6-2c-.6-1.7-1-3.4-1.7-4.9-.6-1.3-1.3-2.2-1.6-3.7,0-1-.7-6.8,1.7-5.4,1.4,1,2,3.1,2.5,4.7.5,1.7,1.2,3.2,1.7,4.9.4,1.1,1,2.6,1.3,3.5.5,0,1.2-.4,2-.5,2.2-.6,6.6-1.7,8.5-2.3,0-.7-.5-1.8-1-3.2-.7-2.2-1.2-4.3-1.6-6.6,0-.8,0-1.7.7-2.4.8-.7,4,7.2,4.3,7.8.6,1.3,1,2.9,2.4,3.1,1.9.4,3.8-1.2,5.4-1.9,1.7-.8,3.5-1.4,4.1-3.4.8-2.9-.7-5.9-2.5-8-1.9-2.4-3.5-5.2-4.6-8-1.3-3.5-4.3-18.1-4.2-19.2.7-4.6,3.5-8,7.9-10,3.5-1.6,5.4-4.7,5.6-8.6,0-1.9,0-3.8.2-5.6.4-1.7.6-3,.4-4.8h.3ZM128.63,141.28h-.1c-.5,16-18.6,28.2-32.4,13.7-8.3-8.3-9.5-24.5,1.2-31.2,13-8.4,30,2.5,31.3,17.3v.2ZM144.63,160.48c-7.1-19.9-.6-22.3,6.1-1.4,1.2,3.7-4.9,5.3-6.1,1.4ZM169.73,139.48v.2c-8,10.7-22.1,1.9-25-11.4-3.6-14,6.6-29.3,19.6-20.5,10.2,5.9,12.4,22.8,5.4,31.7Z"/>
  <path class="cls-1" d="M35.6,75.71c.63-.52.91-1.1.86-1.77-.21-2.5-4.81-5.69-6.56-6.71-.28-.16-.38-.52-.22-.81.16-.29.52-.39.81-.24.08.04,7.96,4.14,10.43.2,1.52-2.41-.22-4.41-2.85-6.96-.99-.96-1.87-1.81-2.3-2.65-1.64.07-5.55,4.08-7.7,6.29-1.3,1.34-2.33,2.4-2.96,2.83-.12.09-.28.12-.43.1-.12-.02-.24-.03-.35-.03-.61,0-1.07.26-1.42.8-.88,1.36-.74,3.95,0,5.12,1.29,2.03,4.95,4.11,8.17,4.62,1.36.22,3.25.25,4.53-.8Z"/>
  <path class="cls-1" d="M39.91,80.09c0,.41-.02.82-.02,1.23.61.6,1.84.67,2.88.6.32-.02.62.23.64.56.02.33-.23.62-.56.64-1.31.09-2.26-.07-2.93-.36.04.74.12,1.47.29,2.17,2.37,1.33,6.2.73,7.74-1.26,1.33-1.72,2.2-6.82.67-8.61-1.47-1.72-3.6-.94-4.74-.33-1.72.92-3.25,2.57-3.96,4.04,0,.44,0,.88-.02,1.32Z"/>
  <path class="cls-1" d="M46.99,56.2c-4.07-6.77-7.96-13.22-12.67-19.78-2.82-3.92-6.7-8.21-6.1-13.29-5.38,3.66-8.23,10.91-13.01,15.41-4.1,3.86-8.4,8.27-11.54,12.79-5.43,7.79-4.73,7.48,1.39,13.64,7,7.04,11.92,15.77,18.75,22.94,5.06,5.32,13.62,12.24,16.26,18.97,4.37-3.47,6.07-9.7,8.87-13.59,3.72-5.17,8.56-9.42,14.53-11.05-1.48-9.31-11.58-17.89-16.48-26.04ZM12.97,50.95l-.2-.41c0-1.16.13-2.41-.19-3.5.79.23,1.73,1.05,2.67.81.88-.22,1.49-1.63,2.24-2.21.25,1.49-.76,2.71-.55,4.24,1.07-.04,2.12.84,2.83,1.43-1.55.76-3.06-.44-4.71-.11,1.27.85,1.99,3.98.81,5.15-1.21-.86-1.8-2.37-2.28-3.57-.39.96-.4,2.23-1.61,2.71-.1-1.55-.42-3.58.99-4.54ZM12.96,65.62c-.1.23-.32.38-.56.38-.07,0-.15,0-.22-.04-.31-.12-.46-.47-.34-.78,3.41-8.78,14.12-16.03,19.87-19.92.27-.18.64-.11.83.16.18.27.11.65-.16.83-5.64,3.82-16.14,10.93-19.42,19.37ZM36.36,76.64c-.96.79-2.27,1.19-3.82,1.19-.53,0-1.08-.04-1.66-.13-3.57-.57-7.53-2.84-9-5.17-.95-1.5-1.16-4.63,0-6.42.63-.95,1.57-1.43,2.71-1.33.57-.46,1.52-1.44,2.61-2.56,3.96-4.06,7.14-7.13,9.13-6.58.19.06.34.2.4.38.25.69,1.18,1.59,2.16,2.55,2.19,2.12,5.18,5.03,3.03,8.46-1.66,2.63-4.94,2.54-7.65,1.86,1.64,1.41,3.24,3.21,3.38,4.95.09,1.08-.35,2.02-1.29,2.8ZM48.91,84.39c-1.21,1.56-3.49,2.43-5.73,2.43-1.36,0-2.72-.32-3.8-1.01-.13-.08-.22-.2-.26-.35-.33-1.21-.41-2.47-.42-3.73-.13-.21-.22-.42-.28-.63-.68-2.37,2.02-5.88,4.9-7.43,2.48-1.34,4.75-1.12,6.22.6,1.95,2.28,1.03,7.98-.63,10.12Z"/>
  <path class="cls-1" d="M53.35,57.8c3.84,4.85,14.5,21.24,14.5,21.24,0,0,11.1,1.29,7.99-5.42-.37-.8-.59-2.02-.86-3.55-.08.06-.15.11-.23.17-.89.66-1.81,1.35-2.92,1.53-.2.03-.39.05-.56.05-1.69,0-2.13-1.52-2.47-2.67-.12-.42-.24-.82-.4-1.16-1.11-2.36-2.8-4.35-4.58-6.44-1.56-1.83-3.17-3.73-4.35-5.9-1.96-3.59-3.73-6.44-5.57-8.99-1.4-1.94-2.72-4.04-3.99-6.07-1.11-1.77-2.26-3.6-3.42-5.25-.17-.24-.13-.54.06-.75,0-.02-.01-.04-.01-.07,0-.33.27-.6.6-.6h13.19c-1.64-4.99-1.77-8.25-1.77-8.25l-26.82-2.56c-.91,1.14,7.07,13.38,10.13,16.47,5.16,5.19,6.99,12.52,11.48,18.2Z"/>
  <path class="cls-1" d="M50.93,39.97c1.26,2.01,2.57,4.09,3.95,6,1.87,2.59,3.66,5.49,5.65,9.12,1.13,2.06,2.7,3.91,4.21,5.69,1.75,2.07,3.57,4.2,4.75,6.71.2.43.33.89.47,1.34.42,1.45.66,1.94,1.67,1.77.83-.14,1.59-.71,2.41-1.31.24-.18.48-.35.72-.52-.37-2.09-.88-4.62-1.89-7.4-2.1-5.75-5.93-12.69-8.93-18.87-.35.37-.94.56-1.46.62-.06,0-.12.01-.17.01.03.2.03.41,0,.63-.12.83-.52,1.44-1.1,1.67-.16.06-.33.09-.49.09-.3,0-.6-.1-.86-.31-.53-.42-.77-1.2-.63-2.07.05-.32.15-.75.4-1.07-.25-.05-.44-.03-.49.01-.09.32-.4.5-.72.41-.32-.08-.5-.43-.42-.75.19-.71.93-1.05,1.89-.85.65.13,1.29.47,1.75.94.24.06.48.11.72.08.36-.04.62-.16.71-.23-.04-.02-.11-.11-.29-.24-.27-.19-.33-.57-.14-.84.08-.11.19-.18.31-.21-.51-1.1-.99-2.17-1.41-3.19-.29-.71-.55-1.4-.79-2.07h-12.94c1.07,1.55,2.12,3.21,3.13,4.83Z"/>
  <path class="cls-1" d="M60.55,42.82s-.07.13-.13.51c-.08.52.05.84.19.95.08.06.13.04.15.04.13-.05.29-.3.35-.73.04-.27-.04-.5-.17-.69-.15-.04-.33-.09-.4-.07Z"/>
  <path class="cls-1" d="M88.68,37.49c-3.81-11.67-7.88-21.95-9.21-34.11-6.41,3.48-15.56,10.04-23.33,10.17,1.06,3.43,3.57,5.83,5.29,8.98,2.78,5.1,3.63,11.25,5.74,16.67,4.78,12.29,11.82,21.77,11.87,35.66,5.5-4.34,12.66-1.48,18.63-3.85-2.93-11.01-5.46-22.68-8.99-33.52ZM74.18,27.54s-.24,1.66-.27,1.76c-.21.79-1.74,1.23-2.54.91-.86-.35-1.95-3.47-.33-3.47-.66-.18-1.46.43-2.19.31-.39-1.15.69-1.97,1.41-2.12-2.68-.22-.39-3.77.72-.85.05-1.11-2.22-1.87-1.1-3.3.61.54-.18-2.56,1.55-1.59,1.74.97,1.07,1.77,1.32,2.34.24.54.06,1.09.48,1.57.38-1.44-.05-5.1,2.7-4.65.23.67,1.33,3.42.81,4.71.59-.04,1.22.09,1.54.41.51.5.6,1.9.51,2.58-.26,1.79-1.51,2.57-3.16,2.64-.53.02-1.45-1.25-1.45-1.25ZM76.65,41.88c.09-1.61,1.75-2.97,3.51-2.98.69.01,1.35.39,1.85,1.07.75.99,1.07,2.47.78,3.52-.39,1.4-1.91,2.28-3.21,2.42-.13.01-.26.02-.38.02-.69,0-1.25-.21-1.68-.62-.9-.86-.93-2.37-.87-3.43ZM90.99,63.2c-.13,0-.25-.04-.36-.13-.87-.66-1.58-1.66-2.27-2.63-.32-.45-.63-.9-.96-1.29-.65-.8-1.2-1.67-1.74-2.52l-.24-.36c-.25-.39-.61-.88-1-1.39-.15-.2-.3-.41-.46-.62,1.03,2.7,2,5.48,2.66,8.38l.07.3c.48,2.04.91,4.29-.1,5.23-.55.52-1.51.53-2.44.54-.49,0-1.04.01-1.29.11-.08.03-.15.04-.23.04-.24,0-.46-.14-.55-.38-.13-.3.02-.65.33-.77.46-.19,1.08-.19,1.73-.2.57-.01,1.42-.02,1.63-.21.39-.37.30-1.74-.25-4.09l-.07-.31c-.9-3.94-2.32-7.54-3.83-11.35l-.03-.07c-.89.48-1.8.96-2.7,1.33-.07.03-.15.05-.22.05-.24,0-.46-.15-.56-.38-.12-.30.02-.65.33-.78.84-.34,1.69-.8,2.6-1.28.29-.16.59-.31.88-.47.08-.23.28-.41.54-.42.08,0,.16.01.24.03,1.28-.63,2.60-1.15,3.98-1.30.34-.04.62.20.66.53.03.33-.21.63-.53.66-1.21.13-2.41.62-3.60,1.20.32,1.05,1.33,2.39,2.17,3.50.40.54.78,1.04,1.06,1.47l.23.37c.54.85,1.06,1.66,1.66,2.40.34.41.67.88,1.01,1.35.64.90,1.30,1.83,2.02,2.38.26.20.31.58.11.84-.12.16-.30.24-.48.24Z"/>
  <path class="cls-1" d="M79.46,44.72c.89-.1,1.94-.71,2.18-1.55.19-.68-.07-1.80-.58-2.49-.20-.26-.51-.58-.91-.58-.01,0-.02,0-.04,0-1.22,0-2.21.99-2.26,1.85-.07,1.28.10,2.12.50,2.50.24.23.61.32,1.11.27Z"/>
  <path class="cls-1" d="M72.78,26.44c1.01,1,2.55-1.8,1.81-2.49-.97-.91-2.11.05-2.40,1.05h-.01s0,.01.01.02c-.17.58-.03,1.17.59,1.42Z"/>
  <path class="cls-1" d="M116.5,36.86c-.82-10.32.96-20.74-.18-31.17-.20-1.80-.79-3.74-1.53-5.38-5.73,2.05-10.84-.59-16.39-.29-.18,2.86.86,5.88.85,8.89,0,8.95-.86,17.31.60,26.15.61,3.68.60,7.56.97,11.32.44,4.58,1.06,9.17,1.87,13.72.61,3.43,2.47,6.48,3.41,9.81.04.13.08.26.11.39.69,2.84.16,5.36,3.32,6.81,5.74,2.63,8.63-4.38,9.04-8.97.92-10.43-1.26-20.91-2.07-31.28ZM103.42,9.12h8.93c-.01-1.91-.01-3.82,0-5.73-.16-.17-.21-.42-.12-.64.03-.08.06-.14.09-.19.02-.33.30-.61.64-.60.33.01.60.24.59.57-.01,2.26-.01,4.51,0,6.77.10.11.17.25.17.42,0,.16-.07.30-.17.41v2.38c0,.33-.27.60-.60.60s-.60-.27-.60-.60v-2.19h-8.93c-.34,0-.60-.27-.60-.60s.26-.60.60-.60ZM101.87,13.77c.12-.31.47-.46.78-.34.41.16.89.29,1.39.43.60.16,1.21.33,1.75.56.58.26,1.30.50,2.06.75,1.19.40,2.40.81,3.28,1.34.24-.01.48-.01.72.01.33.02.57.31.55.64-.03.33-.30.59-.65.55-1.54-.12-3.37.79-5.12,1.67-1.18.59-2.30,1.14-3.39,1.44-.05.01-.10.02-.15.02-.27,0-.51-.18-.58-.45-.09-.32.10-.64.42-.73.97-.27,2.03-.80,3.16-1.36.06-.03.12-.06.18-.09v-2.31c-.34-.12-.67-.25-.97-.38-.45-.20-1.02-.35-1.57-.50-.52-.14-1.05-.29-1.52-.47-.31-.12-.46-.47-.34-.78ZM103.03,23.42c.13-.16.26-.34.40-.53.64-.89,1.44-1.99,2.56-2.10.25-.02.48.11.59.32.27-.01.53-.01.81-.01,1.20-.03,2.43-.05,3.63.06.24.02.45.19.52.42.07.23-.01.49-.20.64-.64.53-.52,3.09-.46,4.32.02.42.04.80.04,1.10,0,.33-.27.60-.60.60s-.60-.27-.60-.60c0-.28-.02-.64-.04-1.04-.08-1.72-.11-3.26.25-4.31-.83-.03-1.68-.01-2.52.01-.51.01-1.02.02-1.53.02-.11,0-.21-.04-.29-.09-.43.32-.86.90-1.19,1.36-.15.21-.30.41-.43.58-1.02,1.27-.93,1.40.20,3.04.65.94,1.35,1.25,1.87.90.55-.37.77-1.35.16-2.29-.18-.27-.10-.65.18-.83.28-.18.65-.10.83.18,1.02,1.57.55,3.24-.50,3.94-.32.21-.71.34-1.12.34-.76,0-1.61-.42-2.35-1.48-1.21-1.74-1.79-2.58-.21-4.55ZM103.31,35.03c.80-1.59,3.77-3.68,5.94-3.24.69.14,1.86.68,2.00,2.71.04.58.17,1.10.32,1.65.19.74.39,1.49.34,2.37-.02.32-.29.57-.60.57-.01,0-.03,0-.04-.01-.33-.02-.58-.30-.56-.63.04-.69-.13-1.32-.30-1.99-.16-.59-.31-1.19-.36-1.88-.09-1.42-.81-1.56-1.04-1.61-1.43-.28-3.98,1.30-4.63,2.60-.26.53-.63,1.48-.07,1.87.64.45,2.17.16,2.82-.54.23-.24.47-.65-.07-1.32-.21-.26-.17-.64.09-.85.25-.21.63-.17.84.09.79.97.80,2.06.02,2.90-1.07,1.15-3.24,1.50-4.39.70-.45-.31-1.38-1.26-.31-3.39ZM104.63,47.34c-.08-.79.16-1.36.37-1.85.14-.34.26-.62.28-.95.02-.34.33-.59.63-.57.05,0,.09.02.13.03.68-.44,1.98-1.08,2.70-.37.02.01.03.02.04.03.37-.40,1.00-.65,2.13-.65h.05c.32,0,.58.25.59.56.13,2.36.19,4.56.19,6.75,0,.33-.27.60-.60.60s-.60-.27-.60-.60c0-1.98-.05-3.98-.15-6.10-.82.07-.86.35-.97,1.12-.06.40-.13.91-.35,1.45-.09.22-.31.37-.55.38h-.01c-.23,0-.45-.15-.55-.36-.13-.32-.13-.74-.10-1.39.01-.28.03-.73,0-.94-.26.01-1.08.41-1.42.70-.02.02-.04.03-.07.04-.07.27-.17.51-.26.73-.18.42-.33.79-.29,1.28.09.93.79,2.14,1.36,2.89.20.27.15.64-.11.84-.11.09-.24.13-.37.13-.18,0-.36-.08-.47-.24-.70-.92-1.49-2.32-1.60-3.51ZM114.12,60.28c-.25.46-.65.75-1.14.83-.73.13-1.27-.17-1.70-.68.29,1.61.71,3.22,1.12,4.80.28,1.08.56,2.15.79,3.19.04.16.01.33-.09.47-.09.13-.24.23-.40.25-.88.13-1.81.20-2.63.20-.15,0-.29,0-.43-.01-.33-.01-.59-.28-.58-.61,0-.34.29-.62.62-.58.66.02,1.43-.02,2.19-.10-.19-.82-.41-1.66-.63-2.50-.80-3.07-1.62-6.24-1.52-9.35.01-.28.21-.51.49-.57.27-.05.54.09.66.35.08.19.16.48.26.89.23.96.78,3.22,1.64,3.07.10-.02.20-.06.30-.23.51-.93-.12-3.53-.56-4.81-1.09.09-3.36.81-4.37,1.63-.32.26-.34.40-.34.40-.03.33-.32.59-.64.56-.33-.02-.57-.28-.56-.61.01-.42.25-.83.71-1.22,1.28-1.10,4.43-2.09,5.68-1.95.22.02.41.16.49.37.02.04,1.66,4.36.64,6.21Z"/>
  <path class="cls-1" d="M109.21,16.92c-.55-.21-1.15-.41-1.74-.61,0,0,0,0,0,0v1.32c.58-.27,1.16-.51,1.74-.71Z"/>
  <path class="cls-1" d="M130.64,23.13s-8.77,38.13-8.28,46.99c3.87-2.61,1.87-6.29,8.47-4.72,3.58.85,6.75,2.70,10.47,3.18,1.46-6.94,8.69-43.27,8.69-43.27l-19.35-2.18ZM130.12,40.32c.32-1.52.55-3.56,2.17-4.10l-.09-.46c.31-1.11.78-2.28.76-3.41.70.43,1.39,1.46,2.36,1.49.90.02,1.87-1.17,2.75-1.53-.17,1.50-1.47,2.41-1.67,3.94,1.04.25,1.81,1.37,2.34,2.14-1.70.31-2.82-1.25-4.51-1.38,1.00,1.17.85,4.37-.59,5.19-.94-1.16-1.10-2.77-1.24-4.05-.63.81-.99,2.04-2.28,2.17ZM136.21,60.49c-.78.45-1.00,1.97-1.57,2.73-.63-1.37.02-2.82-.59-4.24-1.02.32-2.27-.24-3.11-.63,1.30-1.14,3.06-.39,4.57-1.14-1.45-.48-2.97-3.31-2.15-4.75,1.40.51,2.37,1.81,3.14,2.84.13-1.03-.20-2.26.84-3.04.51,1.47,1.36,3.34.25,4.64l.31.34c.31,1.12.51,2.36,1.10,3.32-.82-.01-1.94-.55-2.79-.07Z"/>
  <path class="cls-1" d="M99.75,72.34s8.46,5.69,5.48,1.47c-.89-1.26-2.02-5.41-3.17-10.82-2.70-12.70-5.49-32.35-5.51-37.91-.01-3.60-1.23-5.38-3.47-8.16-3.21-3.98-6.78-9.35-10.62-12.44,2.25,4.05,2.40,9.32,4.15,15.45,5.95,12.26,13.14,52.41,13.14,52.41Z"/>
  <path class="cls-1" d="M123.85,46.14c.27-3.28.61-7.66,1.69-10.77,1.57-4.48,2.28-9.19,3.07-11.42-2.07,0-6.97.67-6.97.67,0,0-1.63,5.34-1.63,12.74s1.67,18.07,1.67,18.07c0,0,1.96-6.87,2.16-9.29Z"/>
</svg>
